<?xml version="1.0" encoding="UTF-8" standalone="no"?>
<!-- Created with Inkscape (http://www.inkscape.org/) -->

<svg
   xmlns:dc="http://purl.org/dc/elements/1.1/"
   xmlns:cc="http://creativecommons.org/ns#"
   xmlns:rdf="http://www.w3.org/1999/02/22-rdf-syntax-ns#"
   xmlns:svg="http://www.w3.org/2000/svg"
   xmlns="http://www.w3.org/2000/svg"
   xmlns:sodipodi="http://sodipodi.sourceforge.net/DTD/sodipodi-0.dtd"
   xmlns:inkscape="http://www.inkscape.org/namespaces/inkscape"
   width="1009.83"
   height="388.63199"
   viewBox="0 0 267.18419 102.82554"
   version="1.1"
   id="svg4958"
   inkscape:version="0.92.0 r15299"
   sodipodi:docname="npma.svg">
  <defs
     id="defs4952" />
  <sodipodi:namedview
     id="base"
     pagecolor="#ffffff"
     bordercolor="#666666"
     borderopacity="1.0"
     inkscape:pageopacity="0.0"
     inkscape:pageshadow="2"
     inkscape:zoom="0.79576914"
     inkscape:cx="503.91499"
     inkscape:cy="193.316"
     inkscape:document-units="mm"
     inkscape:current-layer="layer1"
     showgrid="false"
     fit-margin-top="0"
     fit-margin-left="0"
     fit-margin-right="0"
     fit-margin-bottom="0"
     units="px"
     inkscape:window-width="1280"
     inkscape:window-height="744"
     inkscape:window-x="-4"
     inkscape:window-y="-4"
     inkscape:window-maximized="1" />
  <metadata
     id="metadata4955">
    <rdf:RDF>
      <cc:Work
         rdf:about="">
        <dc:format>image/svg+xml</dc:format>
        <dc:type
           rdf:resource="http://purl.org/dc/dcmitype/StillImage" />
        <dc:title></dc:title>
      </cc:Work>
    </rdf:RDF>
  </metadata>
  <g
     inkscape:label="Layer 1"
     inkscape:groupmode="layer"
     id="layer1"
     transform="translate(-19.374872,-271.02504)">
    <g
       id="g5309"
       transform="matrix(0.26458333,0,0,0.26458333,8.2557615,262.29194)">
      <g
         id="g4978">
	<g
   id="g4970">
		<g
   id="g4962">
			<path
   id="path4960"
   d="m 140.979,270.655 -2.625,-1.121 C 134.468,267.872 43.025,233.985 43.025,164.457 V 77.015 l 1.178,-1.708 c 1.148,-1.681 29.164,-41.3 96.776,-41.3 67.621,0 95.621,39.619 96.781,41.3 l 1.178,1.72 v 87.43 c 0,69.528 -91.443,103.415 -95.33,105.077 z M 56.411,81.35 v 83.107 c 0,54.722 70.01,84.71 84.569,91.55 14.556,-6.85 84.559,-36.914 84.559,-91.55 V 81.35 c -5.58,-6.892 -30.886,-33.948 -84.559,-33.948 -53.634,0 -78.946,27.017 -84.569,33.948 z"
   inkscape:connector-curvature="0"
   style="fill:#244584" />

		</g>

		<g
   id="g4968">
			<path
   id="path4964"
   d="m 92.284,190.551 v -63.554 l 48.696,-34.823 48.69,34.823 v 66.334 c 5.573,1.142 8.107,2.43 13.6,3.919 V 118.532 L 140.98,74.678 78.696,118.532 v 74.005 c 5.523,-0.728 8.059,-1.371 13.588,-1.986 z"
   inkscape:connector-curvature="0"
   style="fill:#00854a" />

			<rect
   id="rect4966"
   height="11.186"
   width="124.574"
   y="189.933"
   x="78.695"
   style="fill:#00854a" />

		</g>

	</g>

	<g
   id="g4976">
		<path
   id="path4972"
   d="m 154.843,134.11 c 0,7.669 -6.216,13.894 -13.888,13.894 -7.673,0 -13.889,-6.225 -13.889,-13.894 0,-7.674 6.216,-13.889 13.889,-13.889 7.672,10e-4 13.888,6.215 13.888,13.889 z"
   inkscape:connector-curvature="0"
   style="fill:#244584" />

		<path
   id="path4974"
   d="m 169.375,181.237 c -1.194,-14.665 -13.44,-26.204 -28.42,-26.204 -14.977,0 -27.231,11.54 -28.419,26.204 z"
   inkscape:connector-curvature="0"
   style="fill:#244584" />

	</g>

</g>
      <g
         id="g5032"
         display="none"
         style="display:none">
	<path
   id="path4980"
   d="m 131.262,446.397 c 0,12.454 -7.569,19.057 -16.802,19.057 -9.555,0 -16.265,-7.408 -16.265,-18.359 0,-11.487 7.139,-19.003 16.802,-19.003 9.877,-10e-4 16.265,7.569 16.265,18.305 z m -28.075,0.59 c 0,7.73 4.187,14.655 11.541,14.655 7.408,0 11.595,-6.817 11.595,-15.03 0,-7.193 -3.758,-14.709 -11.542,-14.709 -7.729,0 -11.594,7.14 -11.594,15.084 z"
   display="inline"
   inkscape:connector-curvature="0"
   style="display:inline;fill:#244584" />

	<path
   id="path4982"
   d="m 159.065,457.777 c 0,2.685 0.054,5.046 0.215,7.086 h -4.187 l -0.269,-4.241 h -0.107 c -1.234,2.094 -3.972,4.832 -8.589,4.832 -4.08,0 -8.964,-2.255 -8.964,-11.381 v -15.191 h 4.724 v 14.387 c 0,4.938 1.503,8.267 5.797,8.267 3.167,0 5.368,-2.201 6.227,-4.295 0.269,-0.697 0.43,-1.557 0.43,-2.415 v -15.943 h 4.724 v 18.894 z"
   display="inline"
   inkscape:connector-curvature="0"
   style="display:inline;fill:#244584" />

	<path
   id="path4984"
   d="m 166.899,446.987 c 0,-3.06 -0.053,-5.689 -0.214,-8.105 h 4.133 l 0.161,5.1 h 0.214 c 1.181,-3.489 4.026,-5.69 7.193,-5.69 0.537,0 0.913,0.054 1.342,0.161 v 4.456 c -0.483,-0.107 -0.966,-0.161 -1.61,-0.161 -3.328,0 -5.69,2.522 -6.334,6.065 -0.107,0.645 -0.215,1.396 -0.215,2.201 v 13.85 h -4.67 z"
   display="inline"
   inkscape:connector-curvature="0"
   style="display:inline;fill:#244584" />

	<path
   id="path4986"
   d="m 226.482,448.973 c -0.269,-5.046 -0.591,-11.111 -0.537,-15.621 h -0.161 c -1.235,4.241 -2.738,8.75 -4.563,13.742 l -6.388,17.554 h -3.543 l -5.851,-17.231 c -1.718,-5.1 -3.167,-9.77 -4.187,-14.064 h -0.107 c -0.107,4.51 -0.375,10.575 -0.698,15.997 l -0.966,15.514 h -4.456 l 2.523,-36.181 h 5.958 l 6.173,17.5 c 1.503,4.455 2.738,8.428 3.65,12.186 h 0.161 c 0.913,-3.65 2.201,-7.623 3.811,-12.186 l 6.442,-17.5 h 5.958 l 2.254,36.181 h -4.562 z"
   display="inline"
   inkscape:connector-curvature="0"
   style="display:inline;fill:#244584" />

	<path
   id="path4988"
   d="m 244.89,431.581 c 0.054,1.61 -1.127,2.899 -3.006,2.899 -1.664,0 -2.845,-1.289 -2.845,-2.899 0,-1.664 1.235,-2.952 2.953,-2.952 1.771,-0.001 2.898,1.288 2.898,2.952 z m -5.261,33.282 v -25.981 h 4.724 v 25.981 z"
   display="inline"
   inkscape:connector-curvature="0"
   style="display:inline;fill:#244584" />

	<path
   id="path4990"
   d="m 251.545,460.032 c 1.396,0.912 3.865,1.879 6.227,1.879 3.436,0 5.046,-1.718 5.046,-3.865 0,-2.255 -1.342,-3.489 -4.831,-4.777 -4.67,-1.664 -6.871,-4.241 -6.871,-7.354 0,-4.188 3.382,-7.623 8.964,-7.623 2.63,0 4.939,0.752 6.388,1.611 l -1.181,3.436 c -1.02,-0.645 -2.898,-1.504 -5.314,-1.504 -2.791,0 -4.348,1.61 -4.348,3.543 0,2.147 1.557,3.114 4.939,4.402 4.509,1.718 6.817,3.972 6.817,7.837 0,4.563 -3.543,7.784 -9.716,7.784 -2.845,0 -5.476,-0.698 -7.3,-1.771 z"
   display="inline"
   inkscape:connector-curvature="0"
   style="display:inline;fill:#244584" />

	<path
   id="path4992"
   d="m 272.801,460.032 c 1.396,0.912 3.865,1.879 6.227,1.879 3.436,0 5.046,-1.718 5.046,-3.865 0,-2.255 -1.342,-3.489 -4.831,-4.777 -4.67,-1.664 -6.871,-4.241 -6.871,-7.354 0,-4.188 3.382,-7.623 8.964,-7.623 2.63,0 4.939,0.752 6.388,1.611 l -1.181,3.436 c -1.02,-0.645 -2.898,-1.504 -5.314,-1.504 -2.791,0 -4.348,1.61 -4.348,3.543 0,2.147 1.557,3.114 4.939,4.402 4.509,1.718 6.817,3.972 6.817,7.837 0,4.563 -3.543,7.784 -9.716,7.784 -2.845,0 -5.476,-0.698 -7.3,-1.771 z"
   display="inline"
   inkscape:connector-curvature="0"
   style="display:inline;fill:#244584" />

	<path
   id="path4994"
   d="m 299.961,431.581 c 0.054,1.61 -1.127,2.899 -3.006,2.899 -1.664,0 -2.845,-1.289 -2.845,-2.899 0,-1.664 1.235,-2.952 2.953,-2.952 1.771,-0.001 2.898,1.288 2.898,2.952 z m -5.261,33.282 v -25.981 h 4.724 v 25.981 z"
   display="inline"
   inkscape:connector-curvature="0"
   style="display:inline;fill:#244584" />

	<path
   id="path4996"
   d="m 330.773,451.658 c 0,9.608 -6.656,13.796 -12.937,13.796 -7.032,0 -12.454,-5.153 -12.454,-13.367 0,-8.696 5.69,-13.796 12.883,-13.796 7.462,0 12.508,5.421 12.508,13.367 z m -20.614,0.268 c 0,5.689 3.274,9.984 7.891,9.984 4.509,0 7.891,-4.241 7.891,-10.092 0,-4.402 -2.201,-9.985 -7.784,-9.985 -5.582,10e-4 -7.998,5.154 -7.998,10.093 z"
   display="inline"
   inkscape:connector-curvature="0"
   style="display:inline;fill:#244584" />

	<path
   id="path4998"
   d="m 336.729,445.914 c 0,-2.684 -0.053,-4.885 -0.214,-7.032 h 4.187 l 0.268,4.295 h 0.107 c 1.289,-2.47 4.294,-4.886 8.589,-4.886 3.597,0 9.18,2.147 9.18,11.059 v 15.514 h -4.724 v -14.977 c 0,-4.188 -1.557,-7.677 -6.012,-7.677 -3.113,0 -5.529,2.201 -6.334,4.831 -0.215,0.591 -0.322,1.396 -0.322,2.201 v 15.621 h -4.724 v -18.949 z"
   display="inline"
   inkscape:connector-curvature="0"
   style="display:inline;fill:#244584" />

	<path
   id="path5000"
   d="m 383.158,431.581 c 0.054,1.61 -1.127,2.899 -3.006,2.899 -1.664,0 -2.845,-1.289 -2.845,-2.899 0,-1.664 1.235,-2.952 2.953,-2.952 1.771,-0.001 2.898,1.288 2.898,2.952 z m -5.26,33.282 v -25.981 h 4.724 v 25.981 z"
   display="inline"
   inkscape:connector-curvature="0"
   style="display:inline;fill:#244584" />

	<path
   id="path5002"
   d="m 389.813,460.032 c 1.396,0.912 3.865,1.879 6.227,1.879 3.436,0 5.046,-1.718 5.046,-3.865 0,-2.255 -1.342,-3.489 -4.831,-4.777 -4.67,-1.664 -6.871,-4.241 -6.871,-7.354 0,-4.188 3.382,-7.623 8.964,-7.623 2.63,0 4.938,0.752 6.388,1.611 l -1.181,3.436 c -1.02,-0.645 -2.898,-1.504 -5.314,-1.504 -2.791,0 -4.348,1.61 -4.348,3.543 0,2.147 1.557,3.114 4.939,4.402 4.509,1.718 6.817,3.972 6.817,7.837 0,4.563 -3.543,7.784 -9.716,7.784 -2.845,0 -5.476,-0.698 -7.3,-1.771 z"
   display="inline"
   inkscape:connector-curvature="0"
   style="display:inline;fill:#244584" />

	<path
   id="path5004"
   d="M 428.836,464.863 V 449.51 l -11.434,-20.828 h 5.314 l 5.1,9.984 c 1.396,2.738 2.469,4.938 3.597,7.462 h 0.107 c 1.02,-2.362 2.254,-4.724 3.65,-7.462 l 5.207,-9.984 h 5.314 l -12.132,20.774 v 15.406 h -4.723 z"
   display="inline"
   inkscape:connector-curvature="0"
   style="display:inline;fill:#244584" />

	<path
   id="path5006"
   d="m 469.095,451.658 c 0,9.608 -6.656,13.796 -12.937,13.796 -7.032,0 -12.454,-5.153 -12.454,-13.367 0,-8.696 5.69,-13.796 12.883,-13.796 7.462,0 12.508,5.421 12.508,13.367 z m -20.613,0.268 c 0,5.689 3.274,9.984 7.891,9.984 4.509,0 7.891,-4.241 7.891,-10.092 0,-4.402 -2.201,-9.985 -7.784,-9.985 -5.583,10e-4 -7.998,5.154 -7.998,10.093 z"
   display="inline"
   inkscape:connector-curvature="0"
   style="display:inline;fill:#244584" />

	<path
   id="path5008"
   d="m 496.792,457.777 c 0,2.685 0.054,5.046 0.215,7.086 h -4.187 l -0.269,-4.241 h -0.107 c -1.234,2.094 -3.972,4.832 -8.589,4.832 -4.08,0 -8.964,-2.255 -8.964,-11.381 v -15.191 h 4.724 v 14.387 c 0,4.938 1.503,8.267 5.797,8.267 3.167,0 5.368,-2.201 6.227,-4.295 0.269,-0.697 0.43,-1.557 0.43,-2.415 v -15.943 h 4.724 v 18.894 z"
   display="inline"
   inkscape:connector-curvature="0"
   style="display:inline;fill:#244584" />

	<path
   id="path5010"
   d="m 504.626,446.987 c 0,-3.06 -0.053,-5.689 -0.214,-8.105 h 4.133 l 0.161,5.1 h 0.214 c 1.181,-3.489 4.026,-5.69 7.193,-5.69 0.537,0 0.913,0.054 1.342,0.161 v 4.456 c -0.483,-0.107 -0.966,-0.161 -1.61,-0.161 -3.328,0 -5.69,2.522 -6.334,6.065 -0.107,0.645 -0.215,1.396 -0.215,2.201 v 13.85 h -4.67 z"
   display="inline"
   inkscape:connector-curvature="0"
   style="display:inline;fill:#244584" />

	<path
   id="path5012"
   d="m 533.718,429.112 c 2.255,-0.376 5.207,-0.698 8.965,-0.698 4.616,0 7.998,1.074 10.146,3.006 1.986,1.718 3.167,4.349 3.167,7.569 0,3.274 -0.966,5.852 -2.791,7.73 -2.47,2.63 -6.496,3.972 -11.059,3.972 -1.396,0 -2.684,-0.054 -3.757,-0.322 v 14.494 h -4.67 v -35.751 z m 4.671,17.446 c 1.02,0.268 2.308,0.375 3.865,0.375 5.637,0 9.072,-2.737 9.072,-7.729 0,-4.777 -3.382,-7.086 -8.535,-7.086 -2.04,0 -3.597,0.161 -4.402,0.376 z"
   display="inline"
   inkscape:connector-curvature="0"
   style="display:inline;fill:#244584" />

	<path
   id="path5014"
   d="m 561.255,446.987 c 0,-3.06 -0.054,-5.689 -0.215,-8.105 h 4.133 l 0.161,5.1 h 0.215 c 1.182,-3.489 4.026,-5.69 7.193,-5.69 0.537,0 0.912,0.054 1.342,0.161 v 4.456 c -0.482,-0.107 -0.966,-0.161 -1.61,-0.161 -3.328,0 -5.69,2.522 -6.334,6.065 -0.107,0.645 -0.215,1.396 -0.215,2.201 v 13.85 h -4.67 z"
   display="inline"
   inkscape:connector-curvature="0"
   style="display:inline;fill:#244584" />

	<path
   id="path5016"
   d="m 601.782,451.658 c 0,9.608 -6.656,13.796 -12.937,13.796 -7.032,0 -12.454,-5.153 -12.454,-13.367 0,-8.696 5.689,-13.796 12.883,-13.796 7.462,0 12.508,5.421 12.508,13.367 z m -20.613,0.268 c 0,5.689 3.274,9.984 7.891,9.984 4.51,0 7.892,-4.241 7.892,-10.092 0,-4.402 -2.201,-9.985 -7.784,-9.985 -5.583,10e-4 -7.999,5.154 -7.999,10.093 z"
   display="inline"
   inkscape:connector-curvature="0"
   style="display:inline;fill:#244584" />

	<path
   id="path5018"
   d="m 613.428,431.419 v 7.462 h 6.764 v 3.597 h -6.764 v 14.011 c 0,3.221 0.913,5.046 3.543,5.046 1.235,0 2.147,-0.161 2.738,-0.322 l 0.215,3.543 c -0.913,0.376 -2.362,0.645 -4.188,0.645 -2.201,0 -3.973,-0.698 -5.1,-1.986 -1.342,-1.396 -1.825,-3.704 -1.825,-6.764 v -14.172 h -4.026 v -3.597 h 4.026 v -6.227 z"
   display="inline"
   inkscape:connector-curvature="0"
   style="display:inline;fill:#244584" />

	<path
   id="path5020"
   d="m 627.813,452.731 c 0.107,6.388 4.188,9.019 8.911,9.019 3.382,0 5.422,-0.591 7.193,-1.342 l 0.805,3.382 c -1.664,0.751 -4.509,1.61 -8.643,1.61 -7.998,0 -12.775,-5.261 -12.775,-13.099 0,-7.837 4.616,-14.011 12.186,-14.011 8.481,0 10.735,7.462 10.735,12.239 0,0.967 -0.106,1.718 -0.16,2.201 h -18.252 z m 13.85,-3.382 c 0.054,-3.006 -1.234,-7.676 -6.549,-7.676 -4.777,0 -6.871,4.401 -7.247,7.676 z"
   display="inline"
   inkscape:connector-curvature="0"
   style="display:inline;fill:#244584" />

	<path
   id="path5022"
   d="m 670.594,463.897 c -1.234,0.644 -3.973,1.503 -7.462,1.503 -7.837,0 -12.937,-5.314 -12.937,-13.26 0,-7.998 5.476,-13.796 13.957,-13.796 2.791,0 5.261,0.698 6.549,1.343 l -1.074,3.65 c -1.127,-0.645 -2.898,-1.235 -5.475,-1.235 -5.959,0 -9.18,4.402 -9.18,9.824 0,6.012 3.865,9.716 9.019,9.716 2.684,0 4.455,-0.698 5.797,-1.288 z"
   display="inline"
   inkscape:connector-curvature="0"
   style="display:inline;fill:#244584" />

	<path
   id="path5024"
   d="m 682.508,431.419 v 7.462 h 6.764 v 3.597 h -6.764 v 14.011 c 0,3.221 0.913,5.046 3.543,5.046 1.235,0 2.147,-0.161 2.738,-0.322 l 0.215,3.543 c -0.913,0.376 -2.362,0.645 -4.188,0.645 -2.201,0 -3.973,-0.698 -5.1,-1.986 -1.342,-1.396 -1.825,-3.704 -1.825,-6.764 v -14.172 h -4.026 v -3.597 h 4.026 v -6.227 z"
   display="inline"
   inkscape:connector-curvature="0"
   style="display:inline;fill:#244584" />

	<path
   id="path5026"
   d="m 699.846,431.581 c 0.054,1.61 -1.128,2.899 -3.007,2.899 -1.664,0 -2.845,-1.289 -2.845,-2.899 0,-1.664 1.234,-2.952 2.952,-2.952 1.772,-0.001 2.9,1.288 2.9,2.952 z m -5.26,33.282 v -25.981 h 4.724 v 25.981 z"
   display="inline"
   inkscape:connector-curvature="0"
   style="display:inline;fill:#244584" />

	<path
   id="path5028"
   d="m 730.657,451.658 c 0,9.608 -6.656,13.796 -12.937,13.796 -7.032,0 -12.454,-5.153 -12.454,-13.367 0,-8.696 5.689,-13.796 12.883,-13.796 7.462,0 12.508,5.421 12.508,13.367 z m -20.613,0.268 c 0,5.689 3.274,9.984 7.891,9.984 4.51,0 7.892,-4.241 7.892,-10.092 0,-4.402 -2.201,-9.985 -7.784,-9.985 -5.583,10e-4 -7.999,5.154 -7.999,10.093 z"
   display="inline"
   inkscape:connector-curvature="0"
   style="display:inline;fill:#244584" />

	<path
   id="path5030"
   d="m 736.613,445.914 c 0,-2.684 -0.054,-4.885 -0.215,-7.032 h 4.187 l 0.269,4.295 h 0.107 c 1.288,-2.47 4.295,-4.886 8.589,-4.886 3.597,0 9.18,2.147 9.18,11.059 v 15.514 h -4.724 v -14.977 c 0,-4.188 -1.558,-7.677 -6.013,-7.677 -3.113,0 -5.529,2.201 -6.334,4.831 -0.215,0.591 -0.322,1.396 -0.322,2.201 v 15.621 h -4.724 z"
   display="inline"
   inkscape:connector-curvature="0"
   style="display:inline;fill:#244584" />

</g>
      <g
         id="g5042"
         display="none"
         style="display:none">
	<path
   id="path5034"
   d="M 186.378,291.463 V 118.921 h 24.32 l 55.295,87.295 c 12.8,20.224 22.784,38.4 30.976,56.063 l 0.512,-0.256 c -2.048,-23.04 -2.56,-44.032 -2.56,-70.911 v -72.191 h 20.992 V 291.463 H 293.385 L 238.602,203.912 C 226.57,184.712 215.05,165 206.346,146.313 l -0.768,0.256 c 1.28,21.76 1.792,42.496 1.792,71.167 v 73.727 z"
   display="inline"
   inkscape:connector-curvature="0"
   style="display:inline;fill:#244584" />

	<path
   id="path5036"
   d="m 349.703,120.97 c 10.752,-1.792 24.832,-3.328 42.751,-3.328 22.016,0 38.144,5.12 48.384,14.336 9.472,8.192 15.104,20.736 15.104,36.095 0,15.616 -4.608,27.904 -13.312,36.864 -11.775,12.544 -30.976,18.944 -52.735,18.944 -6.656,0 -12.8,-0.256 -17.92,-1.536 v 69.119 h -22.272 z m 22.272,83.199 c 4.864,1.28 11.008,1.792 18.432,1.792 26.88,0 43.264,-13.056 43.264,-36.863 0,-22.784 -16.128,-33.792 -40.704,-33.792 -9.728,0 -17.152,0.768 -20.992,1.792 z"
   display="inline"
   inkscape:connector-curvature="0"
   style="display:inline;fill:#244584" />

	<path
   id="path5038"
   d="m 628.231,215.689 c -1.28,-24.064 -2.816,-52.991 -2.561,-74.495 h -0.768 c -5.888,20.224 -13.056,41.728 -21.76,65.535 l -30.464,83.71 h -16.896 l -27.904,-82.174 c -8.192,-24.32 -15.104,-46.592 -19.968,-67.071 h -0.51 c -0.512,21.504 -1.792,50.431 -3.328,76.287 l -4.608,73.983 h -21.248 l 12.032,-172.542 h 28.416 l 29.439,83.455 c 7.167,21.248 13.055,40.191 17.408,58.111 h 0.768 c 4.353,-17.408 10.496,-36.352 18.177,-58.111 l 30.719,-83.455 h 28.416 l 10.752,172.542 h -21.76 z"
   display="inline"
   inkscape:connector-curvature="0"
   style="display:inline;fill:#244584" />

	<path
   id="path5040"
   d="m 711.428,237.192 -17.92,54.271 h -23.039 l 58.623,-172.542 h 26.879 l 58.88,172.542 h -23.808 l -18.432,-54.271 z m 56.575,-17.408 -16.896,-49.663 c -3.84,-11.264 -6.4,-21.504 -8.96,-31.488 h -0.512 c -2.561,10.24 -5.376,20.736 -8.704,31.231 l -16.896,49.919 h 51.968 z"
   display="inline"
   inkscape:connector-curvature="0"
   style="display:inline;fill:#244584" />

</g>
      <g
         id="g5110">
	<path
   id="path5044"
   d="m 44.804,291.233 h 7.83 l 17.732,32.353 h 0.115 v -32.353 h 5.757 v 40.184 H 68.869 L 50.676,298.372 h -0.115 v 33.045 h -5.757 z"
   inkscape:connector-curvature="0"
   style="fill:#00854a" />

	<path
   id="path5046"
   d="m 84.985,304.128 c 2.706,-1.611 5.93,-2.764 9.672,-2.764 8.405,0 11.802,4.147 11.802,12.148 v 12.148 c 0,3.338 0.115,4.893 0.23,5.756 h -5.066 v -3.799 h -0.115 c -1.267,1.785 -4.145,4.49 -9.096,4.49 -6.333,0 -10.766,-2.764 -10.766,-9.154 0,-7.369 8.06,-9.672 13.644,-9.672 2.13,0 3.627,0 5.757,0.115 0,-5.066 -1.842,-7.656 -7.254,-7.656 -3.051,0 -6.333,1.15 -8.521,2.992 z m 16.063,13.298 c -1.151,0 -2.303,-0.115 -3.454,-0.115 -2.936,0 -10.19,0.461 -10.19,5.643 0,3.109 2.994,4.779 5.469,4.779 5.354,0 8.175,-3.34 8.175,-7.715 z"
   inkscape:connector-curvature="0"
   style="fill:#00854a" />

	<path
   id="path5048"
   d="m 130.062,306.43 h -7.772 v 16.062 c 0,3.396 2.072,5.24 4.548,5.24 1.67,0 2.879,-0.52 3.685,-1.037 v 4.605 c -1.209,0.346 -2.878,0.807 -4.605,0.807 -5.584,0 -9.039,-2.648 -9.039,-8.522 V 306.43 h -6.621 v -4.375 h 6.621 v -6.793 l 5.412,-1.727 v 8.52 h 7.772 v 4.375 z"
   inkscape:connector-curvature="0"
   style="fill:#00854a" />

	<path
   id="path5050"
   d="m 143.302,295.493 h -6.103 v -6.104 h 6.103 z m -5.758,6.562 h 5.412 v 29.361 h -5.412 z"
   inkscape:connector-curvature="0"
   style="fill:#00854a" />

	<path
   id="path5052"
   d="m 162.415,301.364 c 8.924,0 14.911,6.449 14.911,15.373 0,8.404 -6.103,15.371 -14.911,15.371 -8.866,0 -14.968,-6.967 -14.968,-15.371 -0.001,-8.924 5.987,-15.373 14.968,-15.373 z m 0,26.369 c 6.333,0 9.154,-5.758 9.154,-10.996 0,-5.586 -3.396,-10.996 -9.154,-10.996 -5.815,0 -9.211,5.41 -9.211,10.996 -0.001,5.238 2.82,10.996 9.211,10.996 z"
   inkscape:connector-curvature="0"
   style="fill:#00854a" />

	<path
   id="path5054"
   d="m 181.123,302.055 h 5.239 v 4.664 h 0.115 c 1.612,-3.34 5.527,-5.355 9.614,-5.355 7.6,0 10.996,4.723 10.996,12.609 v 17.443 h -5.412 v -15.199 c 0,-6.85 -1.497,-10.189 -6.218,-10.476 -6.16,0 -8.923,4.951 -8.923,12.09 v 13.586 h -5.412 v -29.362 z"
   inkscape:connector-curvature="0"
   style="fill:#00854a" />

	<path
   id="path5056"
   d="m 216.527,304.128 c 2.706,-1.611 5.93,-2.764 9.672,-2.764 8.406,0 11.802,4.147 11.802,12.148 v 12.148 c 0,3.338 0.115,4.893 0.23,5.756 h -5.066 v -3.799 h -0.115 c -1.267,1.785 -4.145,4.49 -9.096,4.49 -6.333,0 -10.766,-2.764 -10.766,-9.154 0,-7.369 8.06,-9.672 13.644,-9.672 2.13,0 3.627,0 5.757,0.115 0,-5.066 -1.842,-7.656 -7.254,-7.656 -3.051,0 -6.333,1.15 -8.521,2.992 z m 16.062,13.298 c -1.151,0 -2.303,-0.115 -3.454,-0.115 -2.937,0 -10.19,0.461 -10.19,5.643 0,3.109 2.994,4.779 5.469,4.779 5.355,0 8.175,-3.34 8.175,-7.715 z"
   inkscape:connector-curvature="0"
   style="fill:#00854a" />

	<path
   id="path5058"
   d="m 245.541,288.239 h 5.412 v 43.178 h -5.412 z"
   inkscape:connector-curvature="0"
   style="fill:#00854a" />

	<path
   id="path5060"
   d="m 278.182,291.233 h 10.536 c 8.233,0 15.083,2.877 15.083,12.031 0,8.924 -6.966,12.09 -14.22,12.09 h -5.642 v 16.062 h -5.757 z m 5.757,19.055 h 5.7 c 3.569,0 8.06,-1.783 8.06,-7.08 0,-5.066 -5.296,-6.908 -8.866,-6.908 h -4.894 z"
   inkscape:connector-curvature="0"
   style="fill:#00854a" />

	<path
   id="path5062"
   d="m 330.225,330.208 c -2.073,0.748 -4.433,1.9 -9.269,1.9 -10.42,0 -15.199,-6.332 -15.199,-15.891 0,-8.693 5.469,-14.853 13.759,-14.853 9.787,0 12.954,7.141 12.954,16.582 h -20.956 c 0,5.815 4.548,9.787 9.672,9.787 3.569,0 7.714,-1.844 9.038,-2.938 v 5.413 z m -3.512,-16.293 c 0,-4.49 -2.648,-8.174 -7.312,-8.174 -5.296,0 -7.484,4.375 -7.887,8.174 z"
   inkscape:connector-curvature="0"
   style="fill:#00854a" />

	<path
   id="path5064"
   d="m 337.535,325.661 c 2.13,1.381 5.182,2.072 6.736,2.072 2.475,0 5.527,-1.037 5.527,-4.203 0,-5.353 -12.723,-4.894 -12.723,-13.127 0,-6.102 4.548,-9.039 10.363,-9.039 2.533,0 4.605,0.52 6.736,1.152 l -0.46,4.721 c -1.209,-0.748 -4.433,-1.496 -5.7,-1.496 -2.763,0 -5.182,1.15 -5.182,3.568 0,5.988 12.724,4.262 12.724,13.645 0,6.275 -5.009,9.154 -10.248,9.154 -2.763,0 -5.585,-0.287 -8.06,-1.611 z"
   inkscape:connector-curvature="0"
   style="fill:#00854a" />

	<path
   id="path5066"
   d="M 379.272,306.43 H 371.5 v 16.062 c 0,3.396 2.072,5.24 4.548,5.24 1.67,0 2.879,-0.52 3.685,-1.037 v 4.605 c -1.209,0.346 -2.879,0.807 -4.605,0.807 -5.585,0 -9.039,-2.648 -9.039,-8.522 V 306.43 h -6.621 v -4.375 h 6.621 v -6.793 l 5.412,-1.727 v 8.52 h 7.772 v 4.375 z"
   inkscape:connector-curvature="0"
   style="fill:#00854a" />

	<path
   id="path5068"
   d="m 404.947,291.233 h 9.499 l 12.608,33.391 12.378,-33.391 h 9.499 v 40.184 h -5.757 v -34.773 h -0.115 l -13.299,34.773 h -5.642 l -13.299,-34.773 h -0.115 v 34.773 h -5.757 z"
   inkscape:connector-curvature="0"
   style="fill:#00854a" />

	<path
   id="path5070"
   d="m 457.793,304.128 c 2.706,-1.611 5.93,-2.764 9.672,-2.764 8.405,0 11.802,4.147 11.802,12.148 v 12.148 c 0,3.338 0.115,4.893 0.231,5.756 h -5.066 v -3.799 h -0.115 c -1.267,1.785 -4.145,4.49 -9.096,4.49 -6.333,0 -10.766,-2.764 -10.766,-9.154 0,-7.369 8.06,-9.672 13.644,-9.672 2.13,0 3.627,0 5.757,0.115 0,-5.066 -1.842,-7.656 -7.254,-7.656 -3.051,0 -6.333,1.15 -8.521,2.992 z m 16.062,13.298 c -1.151,0 -2.303,-0.115 -3.454,-0.115 -2.936,0 -10.19,0.461 -10.19,5.643 0,3.109 2.994,4.779 5.469,4.779 5.355,0 8.175,-3.34 8.175,-7.715 z"
   inkscape:connector-curvature="0"
   style="fill:#00854a" />

	<path
   id="path5072"
   d="m 486.117,302.055 h 5.239 v 4.664 h 0.115 c 1.612,-3.34 5.527,-5.355 9.614,-5.355 7.6,0 10.996,4.723 10.996,12.609 v 17.443 h -5.412 v -15.199 c 0,-6.85 -1.497,-10.189 -6.218,-10.476 -6.16,0 -8.923,4.951 -8.923,12.09 v 13.586 h -5.412 v -29.362 z"
   inkscape:connector-curvature="0"
   style="fill:#00854a" />

	<path
   id="path5074"
   d="m 521.521,304.128 c 2.706,-1.611 5.93,-2.764 9.672,-2.764 8.405,0 11.802,4.147 11.802,12.148 v 12.148 c 0,3.338 0.115,4.893 0.23,5.756 h -5.066 v -3.799 h -0.115 c -1.267,1.785 -4.145,4.49 -9.096,4.49 -6.333,0 -10.766,-2.764 -10.766,-9.154 0,-7.369 8.06,-9.672 13.644,-9.672 2.13,0 3.628,0 5.757,0.115 0,-5.066 -1.842,-7.656 -7.254,-7.656 -3.051,0 -6.333,1.15 -8.521,2.992 z m 16.062,13.298 c -1.151,0 -2.303,-0.115 -3.454,-0.115 -2.936,0 -10.19,0.461 -10.19,5.643 0,3.109 2.994,4.779 5.469,4.779 5.354,0 8.175,-3.34 8.175,-7.715 z"
   inkscape:connector-curvature="0"
   style="fill:#00854a" />

	<path
   id="path5076"
   d="m 575.809,330.151 c 0,8.924 -4.605,14.047 -15.142,14.047 -3.108,0 -5.815,-0.402 -10.536,-2.016 l 0.576,-5.008 c 4.144,1.9 6.621,2.648 10.594,2.648 5.699,0 9.096,-3.857 9.096,-10.076 v -2.877 h -0.115 c -2.303,3.051 -6.103,4.547 -9.845,4.547 -8.405,0 -12.55,-6.85 -12.55,-14.449 0,-7.543 4.26,-15.603 13.125,-15.603 5.182,0 8.06,1.9 9.673,5.066 h 0.114 v -4.375 h 5.01 z m -5.412,-13.068 c 0,-6.104 -2.82,-11.342 -8.578,-11.342 -5.469,0 -8.176,5.93 -8.176,10.938 0,5.527 3.109,10.363 8.176,10.363 5.067,0 8.578,-4.491 8.578,-9.959 z"
   inkscape:connector-curvature="0"
   style="fill:#00854a" />

	<path
   id="path5078"
   d="m 605.225,330.208 c -2.072,0.748 -4.433,1.9 -9.269,1.9 -10.42,0 -15.197,-6.332 -15.197,-15.891 0,-8.693 5.469,-14.853 13.758,-14.853 9.787,0 12.955,7.141 12.955,16.582 h -20.957 c 0,5.815 4.549,9.787 9.672,9.787 3.57,0 7.715,-1.844 9.039,-2.938 v 5.413 z m -3.512,-16.293 c 0,-4.49 -2.648,-8.174 -7.312,-8.174 -5.295,0 -7.482,4.375 -7.887,8.174 z"
   inkscape:connector-curvature="0"
   style="fill:#00854a" />

	<path
   id="path5080"
   d="m 613.514,302.055 h 5.066 v 4.26 h 0.115 c 2.072,-3.397 5.008,-4.951 9.326,-4.951 3.396,0 6.793,1.728 8.348,5.701 2.016,-4.203 6.447,-5.701 9.096,-5.701 7.484,0 10.191,4.838 10.191,11.227 v 18.826 h -5.412 v -17.502 c 0,-3.627 -0.863,-8.174 -5.238,-8.174 -5.527,0 -7.715,5.41 -7.715,10.881 v 14.795 h -5.412 v -17.502 c 0,-3.627 -0.863,-8.174 -5.24,-8.174 -5.525,0 -7.713,5.41 -7.713,10.881 v 14.795 h -5.412 z"
   inkscape:connector-curvature="0"
   style="fill:#00854a" />

	<path
   id="path5082"
   d="m 684.958,330.208 c -2.072,0.748 -4.434,1.9 -9.27,1.9 -10.42,0 -15.199,-6.332 -15.199,-15.891 0,-8.693 5.469,-14.853 13.76,-14.853 9.787,0 12.953,7.141 12.953,16.582 h -20.955 c 0,5.815 4.547,9.787 9.672,9.787 3.568,0 7.715,-1.844 9.039,-2.938 z m -3.512,-16.293 c 0,-4.49 -2.648,-8.174 -7.312,-8.174 -5.297,0 -7.484,4.375 -7.887,8.174 z"
   inkscape:connector-curvature="0"
   style="fill:#00854a" />

	<path
   id="path5084"
   d="m 693.303,302.055 h 5.238 v 4.664 h 0.115 c 1.613,-3.34 5.527,-5.355 9.615,-5.355 7.6,0 10.996,4.723 10.996,12.609 v 17.443 h -5.412 v -15.199 c 0,-6.85 -1.496,-10.189 -6.217,-10.476 -6.16,0 -8.924,4.951 -8.924,12.09 v 13.586 h -5.412 v -29.362 z"
   inkscape:connector-curvature="0"
   style="fill:#00854a" />

	<path
   id="path5086"
   d="m 742.928,306.43 h -7.773 v 16.062 c 0,3.396 2.072,5.24 4.549,5.24 1.67,0 2.879,-0.52 3.684,-1.037 v 4.605 c -1.209,0.346 -2.877,0.807 -4.606,0.807 -5.584,0 -9.039,-2.648 -9.039,-8.522 V 306.43 h -6.619 v -4.375 h 6.619 v -6.793 l 5.412,-1.727 v 8.52 h 7.773 z"
   inkscape:connector-curvature="0"
   style="fill:#00854a" />

	<path
   id="path5088"
   d="m 782.706,291.233 h 6.047 l 16.982,40.184 h -6.275 l -4.088,-10.133 h -19.689 l -4.086,10.133 h -6.047 z m 2.822,5.41 -8.002,19.92 h 16.004 z"
   inkscape:connector-curvature="0"
   style="fill:#00854a" />

	<path
   id="path5090"
   d="m 808.84,325.661 c 2.129,1.381 5.182,2.072 6.736,2.072 2.475,0 5.525,-1.037 5.525,-4.203 0,-5.353 -12.723,-4.894 -12.723,-13.127 0,-6.102 4.549,-9.039 10.363,-9.039 2.533,0 4.605,0.52 6.734,1.152 l -0.459,4.721 c -1.209,-0.748 -4.434,-1.496 -5.699,-1.496 -2.764,0 -5.182,1.15 -5.182,3.568 0,5.988 12.723,4.262 12.723,13.645 0,6.275 -5.01,9.154 -10.248,9.154 -2.764,0 -5.584,-0.287 -8.061,-1.611 z"
   inkscape:connector-curvature="0"
   style="fill:#00854a" />

	<path
   id="path5092"
   d="m 831.235,325.661 c 2.129,1.381 5.182,2.072 6.736,2.072 2.475,0 5.525,-1.037 5.525,-4.203 0,-5.353 -12.723,-4.894 -12.723,-13.127 0,-6.102 4.549,-9.039 10.363,-9.039 2.533,0 4.605,0.52 6.734,1.152 l -0.459,4.721 c -1.209,-0.748 -4.433,-1.496 -5.699,-1.496 -2.764,0 -5.182,1.15 -5.182,3.568 0,5.988 12.723,4.262 12.723,13.645 0,6.275 -5.01,9.154 -10.248,9.154 -2.764,0 -5.584,-0.287 -8.06,-1.611 z"
   inkscape:connector-curvature="0"
   style="fill:#00854a" />

	<path
   id="path5094"
   d="m 867.676,301.364 c 8.922,0 14.91,6.449 14.91,15.373 0,8.404 -6.103,15.371 -14.91,15.371 -8.867,0 -14.969,-6.967 -14.969,-15.371 10e-4,-8.924 5.987,-15.373 14.969,-15.373 z m 0,26.369 c 6.332,0 9.152,-5.758 9.152,-10.996 0,-5.586 -3.397,-10.996 -9.152,-10.996 -5.816,0 -9.213,5.41 -9.213,10.996 0,5.238 2.823,10.996 9.213,10.996 z"
   inkscape:connector-curvature="0"
   style="fill:#00854a" />

	<path
   id="path5096"
   d="m 907.338,307.006 c -2.072,-0.863 -4.145,-1.266 -5.871,-1.266 -6.045,0 -9.441,5.41 -9.441,10.996 0,5.238 2.82,10.996 9.787,10.996 1.842,0 4.145,-0.576 5.815,-1.67 l 0.402,4.836 c -2.246,1.037 -4.836,1.209 -6.793,1.209 -8.867,0 -14.969,-6.967 -14.969,-15.371 0,-8.924 5.986,-15.373 14.969,-15.373 2.188,0 5.008,0.52 6.562,1.152 z"
   inkscape:connector-curvature="0"
   style="fill:#00854a" />

	<path
   id="path5098"
   d="m 920.694,295.493 h -6.104 v -6.104 h 6.104 z m -5.758,6.562 h 5.412 v 29.361 h -5.412 z"
   inkscape:connector-curvature="0"
   style="fill:#00854a" />

	<path
   id="path5100"
   d="m 929.329,304.128 c 2.705,-1.611 5.93,-2.764 9.672,-2.764 8.404,0 11.803,4.147 11.803,12.148 v 12.148 c 0,3.338 0.115,4.893 0.229,5.756 h -5.065 v -3.799 h -0.115 c -1.268,1.785 -4.146,4.49 -9.098,4.49 -6.332,0 -10.766,-2.764 -10.766,-9.154 0,-7.369 8.061,-9.672 13.645,-9.672 2.131,0 3.627,0 5.758,0.115 0,-5.066 -1.842,-7.656 -7.254,-7.656 -3.053,0 -6.334,1.15 -8.522,2.992 z m 16.062,13.298 c -1.152,0 -2.303,-0.115 -3.455,-0.115 -2.936,0 -10.19,0.461 -10.19,5.643 0,3.109 2.994,4.779 5.469,4.779 5.354,0 8.176,-3.34 8.176,-7.715 z"
   inkscape:connector-curvature="0"
   style="fill:#00854a" />

	<path
   id="path5102"
   d="m 973.831,306.43 h -7.773 v 16.062 c 0,3.396 2.072,5.24 4.549,5.24 1.67,0 2.879,-0.52 3.684,-1.037 v 4.605 c -1.209,0.346 -2.877,0.807 -4.606,0.807 -5.584,0 -9.039,-2.648 -9.039,-8.522 V 306.43 h -6.619 v -4.375 h 6.619 v -6.793 l 5.412,-1.727 v 8.52 h 7.773 z"
   inkscape:connector-curvature="0"
   style="fill:#00854a" />

	<path
   id="path5104"
   d="m 985.919,295.493 h -6.104 v -6.104 h 6.104 z m -5.758,6.562 h 5.412 v 29.361 h -5.412 z"
   inkscape:connector-curvature="0"
   style="fill:#00854a" />

	<path
   id="path5106"
   d="m 1005.032,301.364 c 8.922,0 14.91,6.449 14.91,15.373 0,8.404 -6.103,15.371 -14.91,15.371 -8.867,0 -14.969,-6.967 -14.969,-15.371 0,-8.924 5.986,-15.373 14.969,-15.373 z m 0,26.369 c 6.332,0 9.152,-5.758 9.152,-10.996 0,-5.586 -3.396,-10.996 -9.152,-10.996 -5.816,0 -9.213,5.41 -9.213,10.996 0,5.238 2.822,10.996 9.213,10.996 z"
   inkscape:connector-curvature="0"
   style="fill:#00854a" />

	<path
   id="path5108"
   d="m 1024.891,302.055 h 5.238 v 4.664 h 0.115 c 1.613,-3.34 5.527,-5.355 9.615,-5.355 7.6,0 10.996,4.723 10.996,12.609 v 17.443 h -5.412 v -15.199 c 0,-6.85 -1.496,-10.189 -6.217,-10.476 -6.16,0 -8.924,4.951 -8.924,12.09 v 13.586 h -5.412 v -29.362 z"
   inkscape:connector-curvature="0"
   style="fill:#00854a" />

</g>
      <g
         id="g5164">
	<path
   id="path5112"
   d="m 194.019,383.921 c 10.79,0 19.379,8.159 19.379,18.251 0,10.253 -8.589,18.467 -19.379,18.467 -10.736,0 -19.217,-8.214 -19.217,-18.467 -0.001,-10.091 8.481,-18.251 19.217,-18.251 z m 0,33.497 c 8.75,0 15.621,-6.817 15.621,-15.245 0,-8.32 -6.871,-15.084 -15.621,-15.084 -8.643,0 -15.406,6.764 -15.406,15.084 -0.001,8.427 6.763,15.245 15.406,15.245 z"
   inkscape:connector-curvature="0"
   style="fill:#244584" />

	<path
   id="path5114"
   d="m 241.576,395.14 v 18.734 c 0,1.879 0.054,3.865 0.43,5.905 h -3.06 c -0.268,-1.234 -0.376,-2.684 -0.376,-3.919 -2.147,2.255 -5.207,4.617 -9.77,4.617 -5.529,0 -9.555,-3.597 -9.555,-8.589 V 395.14 h 3.382 v 16.749 c 0,3.167 2.738,5.69 6.657,5.69 3.972,0 6.979,-2.308 8.964,-4.401 V 395.14 Z"
   inkscape:connector-curvature="0"
   style="fill:#244584" />

	<path
   id="path5116"
   d="m 251.129,419.78 v -18.788 c 0,-1.879 -0.215,-3.811 -0.805,-5.852 h 3.113 c 0.483,1.45 0.644,2.738 0.698,4.349 1.718,-2.523 4.133,-5.046 7.73,-5.046 1.61,0 3.167,0.482 3.919,1.449 l -1.127,2.952 c -0.751,-0.805 -2.415,-1.181 -3.489,-1.181 -2.952,0 -5.153,2.576 -6.71,4.724 v 17.392 h -3.329 z"
   inkscape:connector-curvature="0"
   style="fill:#244584" />

	<path
   id="path5118"
   d="m 317.689,419.78 v -28.665 h -0.269 l -13.474,22.546 h -0.966 l -13.474,-22.546 h -0.269 v 28.665 h -3.436 v -35.054 h 3.972 l 13.796,23.083 h 0.108 l 13.742,-23.083 h 3.865 v 35.054 z"
   inkscape:connector-curvature="0"
   style="fill:#244584" />

	<path
   id="path5120"
   d="m 333.36,383.223 c 1.342,0 2.308,0.967 2.308,2.147 0,1.181 -0.966,2.094 -2.308,2.094 -1.288,0 -2.254,-0.967 -2.254,-2.094 -10e-4,-1.18 0.966,-2.147 2.254,-2.147 z m -1.61,36.557 v -24.64 h 3.328 v 24.64 z"
   inkscape:connector-curvature="0"
   style="fill:#244584" />

	<path
   id="path5122"
   d="m 362.453,400.026 c -1.61,-1.128 -5.368,-2.899 -9.34,-2.899 -3.114,0 -6.656,1.181 -6.656,4.241 0,3.382 4.455,3.597 7.73,3.758 4.241,0.214 11.487,0.59 11.487,7.246 0,5.583 -5.261,8.16 -11.595,8.16 -5.798,0 -9.501,-2.147 -11.917,-3.865 l 1.342,-2.523 c 2.308,1.61 5.636,3.65 10.521,3.65 4.562,0 8.32,-1.718 8.32,-5.153 0,-3.865 -4.939,-4.186 -8.159,-4.348 -5.1,-0.322 -11.059,-0.645 -11.059,-6.55 0,-5.636 5.422,-7.407 9.931,-7.407 4.724,0 8.911,1.879 10.736,3.167 z"
   inkscape:connector-curvature="0"
   style="fill:#244584" />

	<path
   id="path5124"
   d="m 390.74,400.026 c -1.61,-1.128 -5.368,-2.899 -9.34,-2.899 -3.114,0 -6.656,1.181 -6.656,4.241 0,3.382 4.455,3.597 7.73,3.758 4.241,0.214 11.487,0.59 11.487,7.246 0,5.583 -5.261,8.16 -11.595,8.16 -5.798,0 -9.502,-2.147 -11.917,-3.865 l 1.342,-2.523 c 2.308,1.61 5.636,3.65 10.521,3.65 4.562,0 8.32,-1.718 8.32,-5.153 0,-3.865 -4.939,-4.186 -8.159,-4.348 -5.1,-0.322 -11.059,-0.645 -11.059,-6.55 0,-5.636 5.422,-7.407 9.931,-7.407 4.724,0 8.911,1.879 10.736,3.167 z"
   inkscape:connector-curvature="0"
   style="fill:#244584" />

	<path
   id="path5126"
   d="m 402.655,383.223 c 1.342,0 2.308,0.967 2.308,2.147 0,1.181 -0.966,2.094 -2.308,2.094 -1.288,0 -2.254,-0.967 -2.254,-2.094 -0.001,-1.18 0.966,-2.147 2.254,-2.147 z m -1.611,36.557 v -24.64 h 3.328 v 24.64 z"
   inkscape:connector-curvature="0"
   style="fill:#244584" />

	<path
   id="path5128"
   d="m 425.038,394.443 c 7.569,0 13.313,5.743 13.313,12.936 0,7.354 -5.744,13.099 -13.313,13.099 -7.569,0 -13.259,-5.744 -13.259,-13.099 0,-7.193 5.69,-12.936 13.259,-12.936 z m 0,23.243 c 5.69,0 9.877,-4.67 9.877,-10.307 0,-5.475 -4.187,-10.199 -9.877,-10.199 -5.69,0 -9.77,4.724 -9.77,10.199 0,5.637 4.08,10.307 9.77,10.307 z"
   inkscape:connector-curvature="0"
   style="fill:#244584" />

	<path
   id="path5130"
   d="m 444.79,419.78 v -18.788 c 0,-1.879 -0.215,-3.811 -0.752,-5.852 h 3.06 c 0.483,1.343 0.644,2.47 0.698,3.919 2.147,-2.309 5.207,-4.616 9.824,-4.616 5.475,0 9.501,3.597 9.501,8.589 v 16.748 h -3.382 v -16.748 c 0,-3.167 -2.684,-5.69 -6.656,-5.69 -3.973,0 -6.979,2.309 -8.965,4.401 v 18.037 z"
   inkscape:connector-curvature="0"
   style="fill:#244584" />

	<path
   id="path5132"
   d="m 490.95,383.223 c 1.342,0 2.308,0.967 2.308,2.147 0,1.181 -0.966,2.094 -2.308,2.094 -1.289,0 -2.254,-0.967 -2.254,-2.094 0,-1.18 0.966,-2.147 2.254,-2.147 z m -1.61,36.557 v -24.64 h 3.328 v 24.64 z"
   inkscape:connector-curvature="0"
   style="fill:#244584" />

	<path
   id="path5134"
   d="m 521.117,400.026 c -1.61,-1.128 -5.368,-2.899 -9.34,-2.899 -3.114,0 -6.656,1.181 -6.656,4.241 0,3.382 4.455,3.597 7.73,3.758 4.241,0.214 11.487,0.59 11.487,7.246 0,5.583 -5.261,8.16 -11.595,8.16 -5.798,0 -9.501,-2.147 -11.917,-3.865 l 1.342,-2.523 c 2.308,1.61 5.636,3.65 10.522,3.65 4.562,0 8.32,-1.718 8.32,-5.153 0,-3.865 -4.938,-4.186 -8.159,-4.348 -5.1,-0.322 -11.059,-0.645 -11.059,-6.55 0,-5.636 5.422,-7.407 9.931,-7.407 4.724,0 8.911,1.879 10.736,3.167 z"
   inkscape:connector-curvature="0"
   style="fill:#244584" />

	<path
   id="path5136"
   d="m 570.715,384.726 -14.387,18.413 v 16.641 h -3.597 v -16.641 l -14.386,-18.413 h 4.563 l 11.756,15.192 11.81,-15.192 z"
   inkscape:connector-curvature="0"
   style="fill:#244584" />

	<path
   id="path5138"
   d="m 581.128,394.443 c 7.568,0 13.312,5.743 13.312,12.936 0,7.354 -5.744,13.099 -13.312,13.099 -7.57,0 -13.26,-5.744 -13.26,-13.099 0,-7.193 5.689,-12.936 13.26,-12.936 z m 0,23.243 c 5.689,0 9.877,-4.67 9.877,-10.307 0,-5.475 -4.188,-10.199 -9.877,-10.199 -5.691,0 -9.771,4.724 -9.771,10.199 -10e-4,5.637 4.079,10.307 9.771,10.307 z"
   inkscape:connector-curvature="0"
   style="fill:#244584" />

	<path
   id="path5140"
   d="m 623.799,395.14 v 18.734 c 0,1.879 0.055,3.865 0.43,5.905 h -3.061 c -0.268,-1.234 -0.375,-2.684 -0.375,-3.919 -2.146,2.255 -5.207,4.617 -9.77,4.617 -5.529,0 -9.555,-3.597 -9.555,-8.589 V 395.14 h 3.381 v 16.749 c 0,3.167 2.738,5.69 6.656,5.69 3.973,0 6.979,-2.308 8.965,-4.401 V 395.14 Z"
   inkscape:connector-curvature="0"
   style="fill:#244584" />

	<path
   id="path5142"
   d="m 633.352,419.78 v -18.788 c 0,-1.879 -0.215,-3.811 -0.805,-5.852 h 3.113 c 0.482,1.45 0.645,2.738 0.697,4.349 1.719,-2.523 4.135,-5.046 7.73,-5.046 1.611,0 3.168,0.482 3.918,1.449 l -1.127,2.952 c -0.752,-0.805 -2.416,-1.181 -3.488,-1.181 -2.953,0 -5.154,2.576 -6.711,4.724 v 17.392 h -3.327 z"
   inkscape:connector-curvature="0"
   style="fill:#244584" />

	<path
   id="path5144"
   d="M 668.028,419.78 V 384.726 H 686.6 c 4.35,0 7.356,1.128 9.609,3.489 1.719,1.825 2.631,4.08 2.631,6.55 0,2.737 -1.127,5.153 -3.006,6.978 -2.148,2.094 -5.1,3.114 -9.234,3.114 h -14.977 v 14.923 z m 3.596,-31.832 V 401.69 H 686.6 c 2.363,0 4.725,-0.376 6.604,-2.201 1.342,-1.234 2.039,-2.952 2.039,-4.724 0,-1.664 -0.643,-3.168 -1.824,-4.456 -1.719,-1.825 -4.025,-2.361 -6.818,-2.361 z"
   inkscape:connector-curvature="0"
   style="fill:#244584" />

	<path
   id="path5146"
   d="m 704.796,419.78 v -18.788 c 0,-1.879 -0.215,-3.811 -0.807,-5.852 h 3.115 c 0.482,1.45 0.642,2.738 0.697,4.349 1.717,-2.523 4.133,-5.046 7.73,-5.046 1.609,0 3.166,0.482 3.918,1.449 l -1.127,2.952 c -0.752,-0.805 -2.416,-1.181 -3.49,-1.181 -2.951,0 -5.152,2.576 -6.709,4.724 v 17.392 h -3.327 z"
   inkscape:connector-curvature="0"
   style="fill:#244584" />

	<path
   id="path5148"
   d="m 735.551,394.443 c 7.57,0 13.314,5.743 13.314,12.936 0,7.354 -5.744,13.099 -13.314,13.099 -7.568,0 -13.258,-5.744 -13.258,-13.099 10e-4,-7.193 5.69,-12.936 13.258,-12.936 z m 0,23.243 c 5.691,0 9.879,-4.67 9.879,-10.307 0,-5.475 -4.188,-10.199 -9.879,-10.199 -5.689,0 -9.77,4.724 -9.77,10.199 0.001,5.637 4.081,10.307 9.77,10.307 z"
   inkscape:connector-curvature="0"
   style="fill:#244584" />

	<path
   id="path5150"
   d="m 752.727,395.14 h 5.1 v -7.568 h 3.328 v 7.568 h 8.158 v 2.631 h -8.158 v 15.943 c 0,2.845 1.879,3.972 3.865,3.972 1.502,0 3.596,-0.536 4.508,-1.127 l 0.484,2.576 c -1.074,0.806 -3.598,1.504 -5.584,1.504 -3.006,0 -6.602,-1.719 -6.602,-6.925 v -15.943 h -5.1 v -2.631 z"
   inkscape:connector-curvature="0"
   style="fill:#244584" />

	<path
   id="path5152"
   d="m 799.856,415.807 c -2.684,2.631 -6.924,4.671 -11.971,4.671 -7.998,0 -12.83,-5.744 -12.83,-12.723 0,-7.462 5.637,-13.312 13.098,-13.312 5.799,0 12.293,3.597 12.4,12.024 0,0.322 0,0.697 -0.053,1.073 h -22.117 v 0.107 c 0,5.422 3.598,9.877 9.824,9.877 3.865,0 7.246,-1.557 9.394,-3.864 z m -21.15,-10.896 h 18.197 c -0.16,-5.207 -4.777,-7.73 -8.91,-7.73 -4.778,-10e-4 -8.268,3.381 -9.287,7.73 z"
   inkscape:connector-curvature="0"
   style="fill:#244584" />

	<path
   id="path5154"
   d="m 827.606,400.723 c -2.361,-2.255 -5.475,-3.382 -8.428,-3.382 -5.314,0 -9.662,3.973 -9.662,10.038 0,6.174 4.562,10.146 9.984,10.146 4.24,0 7.193,-2.308 8.695,-3.918 l 2.256,2.093 c -1.021,1.235 -4.939,4.778 -11.273,4.778 -7.141,0 -13.312,-5.153 -13.312,-13.099 0,-7.783 6.012,-12.936 13.312,-12.936 3.811,0 7.676,1.288 10.682,4.025 z"
   inkscape:connector-curvature="0"
   style="fill:#244584" />

	<path
   id="path5156"
   d="m 832.381,395.14 h 5.1 v -7.568 h 3.328 v 7.568 h 8.16 v 2.631 h -8.16 v 15.943 c 0,2.845 1.879,3.972 3.865,3.972 1.504,0 3.598,-0.536 4.51,-1.127 l 0.483,2.576 c -1.072,0.806 -3.596,1.504 -5.582,1.504 -3.006,0 -6.604,-1.719 -6.604,-6.925 v -15.943 h -5.1 z"
   inkscape:connector-curvature="0"
   style="fill:#244584" />

	<path
   id="path5158"
   d="m 858.307,383.223 c 1.342,0 2.309,0.967 2.309,2.147 0,1.181 -0.967,2.094 -2.309,2.094 -1.289,0 -2.256,-0.967 -2.256,-2.094 0,-1.18 0.967,-2.147 2.256,-2.147 z m -1.611,36.557 v -24.64 h 3.328 v 24.64 z"
   inkscape:connector-curvature="0"
   style="fill:#244584" />

	<path
   id="path5160"
   d="m 881.762,394.443 c 7.57,0 13.314,5.743 13.314,12.936 0,7.354 -5.744,13.099 -13.314,13.099 -7.568,0 -13.258,-5.744 -13.258,-13.099 0,-7.193 5.69,-12.936 13.258,-12.936 z m 0,23.243 c 5.691,0 9.879,-4.67 9.879,-10.307 0,-5.475 -4.188,-10.199 -9.879,-10.199 -5.69,0 -9.77,4.724 -9.77,10.199 0.001,5.637 4.081,10.307 9.77,10.307 z"
   inkscape:connector-curvature="0"
   style="fill:#244584" />

	<path
   id="path5162"
   d="m 902.588,419.78 v -18.788 c 0,-1.879 -0.215,-3.811 -0.752,-5.852 h 3.061 c 0.482,1.343 0.645,2.47 0.697,3.919 2.148,-2.309 5.207,-4.616 9.824,-4.616 5.475,0 9.502,3.597 9.502,8.589 v 16.748 h -3.383 v -16.748 c 0,-3.167 -2.683,-5.69 -6.656,-5.69 -3.973,0 -6.979,2.309 -8.965,4.401 v 18.037 z"
   inkscape:connector-curvature="0"
   style="fill:#244584" />

</g>
      <g
         id="g5174">
	<path
   id="path5166"
   d="m 431.225,72.478 v 173.164 h -39.247 l -76.373,-94.14 h -0.265 v 94.14 H 268.668 V 72.478 h 38.982 l 76.638,94.405 h 0.265 V 72.478 Z"
   inkscape:connector-curvature="0"
   style="fill:#244584" />

	<path
   id="path5168"
   d="M 459.339,245.642 V 72.478 h 96.527 c 24.662,0 42.428,6.894 54.361,19.889 9.018,9.812 14.32,22.275 14.32,36.33 0,15.115 -6.365,28.64 -16.971,38.716 -11.404,10.873 -27.58,17.237 -51.711,17.237 h -50.12 v 60.992 z m 46.407,-135.508 v 36.86 h 52.771 c 5.834,0 10.608,-1.591 13.79,-4.773 3.447,-3.447 5.834,-8.486 5.834,-13.524 0,-5.039 -2.123,-10.077 -5.57,-13.524 -3.712,-3.712 -8.75,-5.039 -14.054,-5.039 z"
   inkscape:connector-curvature="0"
   style="fill:#244584" />

	<path
   id="path5170"
   d="m 787.903,245.642 v -83.267 h -1.326 l -39.512,64.439 H 730.624 L 691.11,162.375 h -1.326 v 83.267 H 644.438 V 72.478 h 42.43 l 53.037,87.51 h 0.529 l 52.772,-87.51 h 41.369 v 173.164 z"
   inkscape:connector-curvature="0"
   style="fill:#244584" />

	<path
   id="path5172"
   d="m 843.333,245.642 80.35,-173.164 h 38.451 l 80.351,173.164 h -50.65 l -11.139,-26.518 h -77.432 l -10.873,26.518 z m 74.781,-62.583 h 47.732 l -23.07,-55.423 h -1.592 z"
   inkscape:connector-curvature="0"
   style="fill:#244584" />

</g>
      <g
         id="g5176">
</g>
      <g
         id="g5178">
</g>
      <g
         id="g5180">
</g>
      <g
         id="g5182">
</g>
      <g
         id="g5184">
</g>
      <g
         id="g5186">
</g>
    </g>
  </g>
</svg>
